<?xml version="1.0" encoding="UTF-8"?>
<svg xmlns="http://www.w3.org/2000/svg" xmlns:xlink="http://www.w3.org/1999/xlink" width="30pt" height="30pt" viewBox="0 0 30 30" version="1.1">
<g id="surface1519404">
<path style=" stroke:none;fill-rule:nonzero;fill:rgb(45.098039%,71.372549%,42.352941%);fill-opacity:1;" d="M 15 3 C 7.820312 3 2 7.925781 2 14 C 2 16.675781 3.132812 19.125 5.011719 21.035156 C 5.046875 21.128906 6.011719 23.605469 3.160156 26.136719 C 3.058594 26.230469 3 26.363281 3 26.5 C 3 26.777344 3.222656 27 3.5 27 C 3.535156 27 3.570312 26.996094 3.609375 26.988281 C 6.484375 26.816406 8.945312 25.390625 10.445312 24.292969 C 11.863281 24.742188 13.394531 25 15 25 C 22.179688 25 28 20.074219 28 14 C 28 7.925781 22.179688 3 15 3 Z M 15 7.5 C 15.828125 7.5 16.5 8.171875 16.5 9 C 16.5 9.828125 15.828125 10.5 15 10.5 C 14.171875 10.5 13.5 9.828125 13.5 9 C 13.5 8.171875 14.171875 7.5 15 7.5 Z M 14 13 L 16 13 L 16 20 L 14 20 Z M 14 13 "/>
</g>
</svg>
