<?xml version="1.0" encoding="UTF-8"?>
<svg xmlns="http://www.w3.org/2000/svg" xmlns:xlink="http://www.w3.org/1999/xlink" width="24pt" height="24pt" viewBox="0 0 24 24" version="1.1">
<g id="surface1713260">
<path style=" stroke:none;fill-rule:nonzero;fill:rgb(45.098039%,71.372549%,42.352941%);fill-opacity:1;" d="M 6.75 2 C 5.234375 2 4 3.234375 4 4.75 L 4 19.25 C 4 20.761719 5.238281 22 6.75 22 L 19.75 22 C 20.019531 22.003906 20.273438 21.863281 20.410156 21.628906 C 20.542969 21.394531 20.542969 21.105469 20.410156 20.871094 C 20.273438 20.636719 20.019531 20.496094 19.75 20.5 L 6.75 20.5 C 6.136719 20.5 5.636719 20.074219 5.523438 19.5 L 19.75 19.5 C 20.164062 19.5 20.5 19.164062 20.5 18.75 L 20.5 4.75 C 20.5 3.234375 19.265625 2 17.75 2 Z M 12.25 6 C 13.214844 6 14 6.785156 14 7.75 C 14 8.714844 13.214844 9.5 12.25 9.5 C 11.285156 9.5 10.5 8.714844 10.5 7.75 C 10.5 6.785156 11.285156 6 12.25 6 Z M 9.75 11.5 L 14.75 11.5 C 15.164062 11.5 15.5 11.835938 15.5 12.25 L 15.5 13.5 C 15.5 14.601562 14.042969 15.5 12.25 15.5 C 10.457031 15.5 9 14.601562 9 13.5 L 9 12.25 C 9 11.835938 9.335938 11.5 9.75 11.5 Z M 9.75 11.5 "/>
</g>
</svg>
